HIERARCHY
ROOT Hips
{
  OFFSET 90.7885 88.945 -76.2838
  CHANNELS 6 Xposition Yposition Zposition Zrotation Xrotation Yrotation
  JOINT LeftUpLeg
  {
    OFFSET 8.64259 1.95398 -2.38835
    CHANNELS 3 Zrotation Xrotation Yrotation
    JOINT LeftLeg
    {
      OFFSET 43.7702 0 0
      CHANNELS 3 Zrotation Xrotation Yrotation
      JOINT LeftFoot
      {
        OFFSET 40.6238 0 0
        CHANNELS 3 Zrotation Xrotation Yrotation
        JOINT LeftToeBase
        {
          OFFSET 12.7242 0 0
          CHANNELS 3 Zrotation Xrotation Yrotation
          End Site
          {
            OFFSET 0 0 0
          }
        }
      }
    }
  }
  JOINT RightUpLeg
  {
    OFFSET -8.2249 1.95398 -2.59336
    CHANNELS 3 Zrotation Xrotation Yrotation
    JOINT RightLeg
    {
      OFFSET 43.5653 0 0
      CHANNELS 3 Zrotation Xrotation Yrotation
      JOINT RightFoot
      {
        OFFSET 40.6238 0 0
        CHANNELS 3 Zrotation Xrotation Yrotation
        JOINT RightToeBase
        {
          OFFSET 12.7242 0 0
          CHANNELS 3 Zrotation Xrotation Yrotation
          End Site
          {
            OFFSET 0 0 0
          }
        }
      }
    }
  }
  JOINT Spine
  {
    OFFSET 0.165834 0.87714 6.61349
    CHANNELS 3 Zrotation Xrotation Yrotation
    JOINT Spine1
    {
      OFFSET 7.38963 1.71661e-005 0
      CHANNELS 3 Zrotation Xrotation Yrotation
      JOINT Spine2
      {
        OFFSET 11.9445 1.14441e-005 0
        CHANNELS 3 Zrotation Xrotation Yrotation
        JOINT Spine3
        {
          OFFSET 14.7254 4.19617e-005 0
          CHANNELS 3 Zrotation Xrotation Yrotation
          JOINT Spine4
          {
            OFFSET 10.9679 0 0
            CHANNELS 3 Zrotation Xrotation Yrotation
            JOINT RightShoulder
            {
              OFFSET 2.46616 -1.6653 3.69651
              CHANNELS 3 Zrotation Xrotation Yrotation
              JOINT RightArm
              {
                OFFSET 13.0012 0 0
                CHANNELS 3 Zrotation Xrotation Yrotation
                JOINT RightForeArm
                {
                  OFFSET 28.7848 1.52588e-005 0
                  CHANNELS 3 Zrotation Xrotation Yrotation
                  JOINT RightHand
                  {
                    OFFSET 26.5688 1.52588e-005 0
                    CHANNELS 3 Zrotation Xrotation Yrotation
                    End Site
                    {
                      OFFSET 0 0 0
                    }
                  }
                }
              }
            }
            JOINT LeftShoulder
            {
              OFFSET 2.38034 -1.29275 -3.7523
              CHANNELS 3 Zrotation Xrotation Yrotation
              JOINT LeftArm
              {
                OFFSET 16.3182 6.10352e-005 0
                CHANNELS 3 Zrotation Xrotation Yrotation
                JOINT LeftForeArm
                {
                  OFFSET 27.0901 0 0
                  CHANNELS 3 Zrotation Xrotation Yrotation
                  JOINT LeftHand
                  {
                    OFFSET 24.5451 1.52588e-005 0
                    CHANNELS 3 Zrotation Xrotation Yrotation
                    End Site
                    {
                      OFFSET 0 0 0
                    }
                  }
                }
              }
            }
            JOINT Neck
            {
              OFFSET 5.0226 -0.0266342 0
              CHANNELS 3 Zrotation Xrotation Yrotation
              JOINT Head
              {
                OFFSET 6.69363 2.86102e-005 0
                CHANNELS 3 Zrotation Xrotation Yrotation
                End Site
                {
                  OFFSET 0 0 0
                }
              }
            }
          }
        }
      }
    }
  }
}
MOTION
Frames:	18
Frame Time:	0.0416667
-14.6874 101.148 16.2253 93.5395 21.4918 75.0243 -177.707 35.86 80.8166 -41.8672 4.00805 -2.29363 81.5746 9.20818 -1.8198 16.0094 3.22808 -1.77382 167.839 -1.73334 79.5056 -21.6029 -8.04212 -3.42106 67.6162 -4.15767 -1.89154 33.4516 -4.03338 9.51461 2.52201 8.25452 -88.0929 10.2756 5.89621 3.28148 -1.38539 6.03483 3.01824 -23.9601 4.63829 4.90246 -3.94744 4.63829 4.90246 89.0978 -22.6954 -111.889 34.22 -12.2488 -20.8131 8.20444 -9.29529 -8.13967 -33.477 -1.01046 -3.13681 -87.3406 -51.2407 82.9229 -15.9905 -0.325548 10.2004 8.90796 0.102927 -2.1174 17.3678 1.98875 7.53858 -0.978295 13.4629 44.6784 -7.25355 7.92919 -12.381 
-2.11892 93.0296 3.94345 94.5145 21.9525 77.8719 -177.852 32.572 82.5881 -26.9187 4.26905 -3.5326 75.074 6.73626 -2.61565 18.902 0.215068 1.34686 164.38 -15.7674 76.6203 -20.8454 -3.22315 -4.58981 88.769 -13.6936 1.97945 33.9375 0.401484 -2.25317 2.00548 8.24006 -88.7531 10.3481 4.56553 2.0815 -1.31612 4.6527 1.87821 -23.8845 3.72901 3.35827 -3.87182 3.72901 3.35825 89.9106 -22.1167 -110.392 42.3049 -10.274 -13.9129 7.59673 -8.98161 -6.73576 -34.3508 -1.301 -2.17411 -86.6803 -62.5837 85.5052 -16.1656 5.97674 8.714 6.29716 -3.91379 -2.47443 12.7917 1.28086 5.91805 4.08523 13.9013 35.1142 -7.76724 7.81384 -7.14596 
14.7603 90.4856 -8.39289 95.3709 27.407 79.9316 -174.541 30.8509 81.7493 -41.2945 8.92927 -4.63091 68.9236 4.02328 -1.38878 14.0201 -4.21753 6.79496 164.469 -16.6138 74.9892 -38.2779 -0.51738 -3.7087 68.5559 -4.86633 -1.23127 37.961 -2.357 3.42249 1.28441 7.84111 -88.6774 11.1511 3.17057 2.32357 -0.517979 3.26975 2.18173 -23.0536 2.32604 3.1687 -3.04093 2.32604 3.16869 89.2456 -27.0739 -109.513 48.3519 -8.06196 3.17501 8.3262 -7.40813 -6.50254 -31.9758 -0.554504 -4.454 -88.4235 -60.0614 82.8152 -12.3094 7.8751 1.90179 5.47576 0.961863 -0.371054 10.795 1.11076 6.01757 9.60766 10.8337 15.1964 -10.8413 7.87211 -6.4668 
27.3475 90.5606 -18.5446 97.9837 31.6475 80.7311 -173.032 23.4896 82.4775 -52.8076 14.83 -4.73478 81.9768 9.825 1.58941 9.3695 -2.64798 5.64671 175.663 8.39836 89.3078 -92.0781 -11.2541 -2.24062 64.8449 -3.06695 -1.64116 25.3982 -3.69859 8.89802 0.265895 7.92418 -88.9285 11.0032 1.02611 2.04316 -0.669027 1.11501 1.99604 -23.191 0.364829 2.25699 -3.17831 0.364814 2.25698 91.9155 -25.6137 -104.469 46.3007 -0.20029 13.6195 6.56392 -8.56386 -3.74779 -28.6239 -0.651862 -4.18847 -87.0398 -50.8904 83.3165 -6.99741 0.322519 -13.4899 8.96012 5.70622 -3.44206 16.4531 1.9729 7.97546 10.9068 6.56005 -2.80998 -11.7166 7.58394 -6.27219 
38.8747 99.7886 -28.9258 102.764 29.7924 86.3382 -175.208 0.897613 89.1825 -33.2236 12.1791 -2.22047 66.8939 2.96285 -0.916692 18.5829 3.87822 -3.09107 -174.664 30.8155 93.7182 -107.274 2.49328 -1.56947 72.701 -6.59121 -2.737 22.3912 -3.41562 8.31905 -0.199872 8.34042 -90.2693 10.1917 -0.521013 -0.490424 -1.47922 -0.542042 -0.46704 -24.0141 -0.349535 -0.624338 -4.00142 -0.349509 -0.624337 91.4795 -23.3398 -106.336 39.2974 -0.0340423 17.7874 7.27201 -9.22145 -2.45067 -29.2603 -0.753626 -3.96147 -86.3646 -41.6864 82.7866 -7.38892 -6.97455 -19.5707 12.2397 8.37042 -6.48967 20.6218 2.45468 8.09564 -1.22928 7.29014 -5.68995 -6.74167 8.26601 -7.17088 
49.6954 107.774 -39.3997 105.016 38.723 88.0431 -175.183 -6.04984 91.9215 -24.9399 20.0029 0.851373 50.4862 -3.0511 -3.45998 13.7116 0.20816 2.08096 -174.598 41.2017 95.271 -100.934 5.37782 -1.82845 82.4912 -10.6442 -1.92504 16.4883 -2.84237 7.44871 -0.941158 8.63961 -91.2962 9.55325 -2.46052 -2.37654 -2.11736 -2.5627 -2.26597 -24.6441 -1.6329 -3.00579 -4.63143 -1.63291 -3.00579 90.5857 -22.6352 -108.635 37.022 -1.25052 23.8915 9.0497 -8.76573 -1.6763 -28.4536 -0.517154 -4.8666 -88.1768 -36.3417 78.544 -4.39751 -6.71322 -26.7465 10.4618 4.96645 -1.17994 18.0223 1.39653 3.92364 -5.05829 5.38645 -10.1154 -3.9008 6.49956 -6.00522 
60.3923 109.01 -48.931 102.664 45.8406 88.884 -176.25 -3.48417 91.3888 -18.043 10.7975 0.00719306 54.4144 -1.50348 -2.90273 14.4209 -1.47488 4.03754 -177.247 45.0871 95.6737 -85.3758 -0.388888 -2.03725 80.5846 -10.084 -3.0313 19.2326 -3.03506 7.71221 -1.2461 8.64448 -91.4935 9.54103 -3.15766 -2.71945 -2.12862 -3.27424 -2.57785 -24.6582 -2.19491 -3.5422 -4.64551 -2.19491 -3.5422 90.5724 -24.6296 -107.761 38.8269 0.109446 26.0539 8.73019 -8.46406 -1.53835 -29.1176 -0.39232 -5.35171 -88.0369 -34.7481 78.3761 -1.93781 -6.08911 -35.736 9.4468 2.24102 0.101594 19.0827 1.54744 4.24658 0.176903 1.19271 -19.9976 -5.00939 4.08871 -3.68413 
72.5768 103.435 -58.8289 102.576 50.3637 89.6569 -176.116 -0.915505 92.0833 -25.3451 16.2282 1.45699 61.0701 1.03691 4.74249 28.5008 6.65664 -10.591 178.738 41.4174 99.3706 -62.3928 -7.43892 -0.807196 77.9143 -8.87097 -1.64122 23.093 -2.67157 6.7225 -1.23356 8.59096 -91.537 9.64398 -3.15326 -2.80445 -2.02588 -3.2736 -2.66298 -24.5533 -2.16526 -3.6219 -4.54061 -2.16524 -3.6219 89.4693 -26.7912 -109.136 43.6875 0.628919 26.06 9.12626 -5.51143 -2.07382 -28.913 -0.262514 -5.30577 -88.6165 -36.8474 77.9023 -2.19399 -3.56929 -40.2532 8.23124 5.23561 -0.061628 18.8282 1.73523 5.37479 -2.19418 -1.29144 -26.0113 -2.17492 1.84652 -2.77987 
86.4617 94.5107 -69.9325 106.322 50.823 85.9595 -168.266 -13.127 100.487 -31.6586 20.0519 -1.06339 93.3763 13.2679 -4.77145 21.0315 2.91577 -2.43807 178.147 32.2969 101.678 -38.4478 -9.88565 0.279419 75.2888 -8.13031 -2.19382 24.0461 -1.98912 5.23372 -1.05107 8.74737 -91.0542 9.3547 -2.56948 -1.89929 -2.31493 -2.65056 -1.78435 -24.8512 -1.88007 -2.58357 -4.83856 -1.88006 -2.58357 91.1572 -30.6231 -104.243 46.2736 -0.933335 19.126 9.02828 -2.91074 -1.38235 -28.9847 -0.232936 -4.95741 -88.6701 -45.1344 79.7334 -14.5366 -7.19602 -40.3818 14.9677 15.8318 -10.0577 19.6462 2.01687 6.4312 -1.0093 -3.35365 -28.6981 -2.67052 0.485251 -6.22442 
100.273 90.6243 -85.3329 101.38 50.6048 87.5887 -168.957 -23.7635 98.7481 -29.336 17.8714 0.281171 81.561 10.0288 1.90057 35.6091 4.19066 -8.78511 173.06 29.6349 100.634 -40.1937 -7.63526 3.29051 65.1841 -2.44931 -2.90651 23.6433 -2.1604 5.64828 -1.1715 7.9998 -91.0754 10.8509 -2.82966 -1.87575 -0.818137 -2.90948 -1.74937 -23.358 -2.13523 -2.63936 -3.34538 -2.13523 -2.63936 91.2808 -31.2047 -103.807 43.4538 -0.21675 12.3606 7.53613 0.0973078 -2.16658 -25.256 -0.18638 -4.56447 -91.0342 -52.7938 77.8048 -16.681 2.56023 -26.2805 10.8692 18.9683 -7.35978 15.8829 1.69045 6.61788 1.22113 -3.48756 -21.59 -4.85107 -0.250258 -5.59593 
111.341 88.8194 -97.4961 100.58 48.9614 87.1769 -168.164 0.483724 89.9203 -79.4461 23.9832 4.27208 65.3275 2.85333 3.70607 7.04866 5.4514 -2.17481 170.039 26.4718 99.8398 -58.5142 -11.2484 3.99116 84.9729 -12.9172 -4.33404 16.2792 -1.96398 5.80423 -0.184642 7.95734 -91.2919 10.9344 -0.965806 -2.49204 -0.738609 -1.07451 -2.44717 -23.2539 -0.172566 -2.66698 -3.24124 -0.172561 -2.66698 92.4272 -26.5491 -103.051 40.8628 -4.87634 -0.00854533 8.49502 -1.60336 -1.93152 -31.9186 -0.64812 -3.20814 -90.5623 -57.0186 79.3826 -15.1622 6.1523 -12.7232 6.49465 7.26269 -0.210059 15.9435 2.00848 8.69291 11.4381 -2.4776 0.51046 -7.4777 -2.31496 -2.9026 
122.829 97.0294 -107.322 104.031 49.9319 78.5556 -173.518 31.2046 92.0504 -105.327 15.8265 7.36622 64.5787 2.50909 6.86417 9.79148 8.86518 -6.45347 171.383 9.36591 93.2302 -45.3721 -10.7011 1.75629 72.0955 -5.68141 -2.73777 29.9799 -4.50059 10.9033 0.756596 8.29637 -90.0572 10.2936 1.48119 -0.223698 -1.37653 1.46991 -0.288699 -23.9188 1.47999 0.231903 -3.90612 1.48001 0.231892 93.8401 -22.6204 -101.32 43.8168 -4.73579 -7.78441 6.10447 -8.516 -7.78397 -33.6934 -0.463913 -5.03546 -89.0382 -50.4087 80.2423 -10.0958 -4.48972 -3.38061 11.3328 10.4257 -1.74677 14.7493 1.90601 8.82814 2.82045 -2.62181 3.96522 -4.10365 -3.33661 2.21527 
134.789 107.133 -118.205 102.824 45.1281 73.2144 -174.007 43.583 82.5553 -93.8209 14.852 5.44852 68.9154 4.3975 5.8569 5.29301 8.35428 -4.75403 173.041 -2.59909 88.0595 -31.6155 -17.9027 -4.07511 52.5132 3.37776 2.36314 26.2344 -1.44369 3.78242 1.45163 8.34605 -88.5474 10.1365 3.55479 2.58512 -1.53186 3.6651 2.4261 -24.07 2.61399 3.53361 -4.05739 2.61397 3.53361 92.1464 -22.3358 -105.263 44.5404 -8.9952 -9.48074 6.68899 -9.84945 -9.07032 -33.0082 -0.271748 -5.87008 -88.9417 -44.2998 79.1197 -2.36885 0.269447 6.00458 8.62246 4.90419 -2.36652 16.6373 1.6799 6.17501 -7.79567 -1.44656 5.45772 -0.448915 -1.8282 0.518153 
144.52 110.46 -129.287 96.8205 38.1939 75.096 -174.843 47.6152 78.9136 -75.3865 12.8869 2.39572 74.2991 6.42761 2.48913 4.49915 6.22595 -2.53453 166.977 -0.994735 82.58 -22.9546 -15.3065 0.488176 49.1293 3.53118 7.34837 36.1363 -0.690184 -0.112923 2.21572 8.39181 -88.1854 10.0098 5.24072 3.16953 -1.65383 5.37506 2.93546 -24.2139 4.04668 4.59809 -4.2013 4.04668 4.59808 91.21 -23.2474 -106.972 42.0173 -9.31554 -9.46933 7.27799 -8.20344 -9.31746 -32.3485 -0.0196403 -6.49554 -87.7168 -52.8517 82.6595 4.96052 -1.1838 6.66983 9.58867 8.16055 -6.35832 22.7862 3.00516 9.26346 -3.85647 -0.237427 21.9868 -2.17342 -2.5703 -7.96653 
154.773 107.129 -140.813 93.3619 32.0441 76.4474 -176.149 43.8546 79.1944 -51.6585 12.1106 -1.45839 77.6487 7.74719 -0.188329 12.8054 4.07687 -2.09147 167.347 0.91656 81.9478 -18.2969 -3.65036 -0.0873357 58.4494 0.394218 2.62562 32.3398 -2.55589 6.16602 2.36329 8.34886 -88.259 10.0929 5.50189 3.00222 -1.56932 5.62863 2.75669 -24.14 4.34592 4.5176 -4.12739 4.34591 4.5176 90.311 -23.8016 -108.705 41.0977 -10.4691 -8.18964 8.11204 -7.88149 -8.27193 -34.3035 -0.266504 -5.55077 -86.8993 -53.0273 83.871 -9.55915 -5.92823 12.6159 12.8163 12.0908 -9.09283 21.914 3.68829 12.7016 -2.50092 2.92045 31.3025 -2.27555 -0.75528 -9.26836 
165.994 98.6745 -153.22 94.7244 27.0755 79.3851 -177.935 35.3775 83.3934 -28.7528 3.83496 -3.21735 76.7002 7.34125 -2.17049 17.9497 -0.0641698 1.81857 166.195 -6.79183 79.9893 -24.3118 -0.962409 -1.18591 81.2625 -9.99991 2.11765 34.1705 -1.69459 3.1267 2.08331 8.58225 -89.1248 9.70094 4.54969 1.36633 -1.96244 4.60538 1.16438 -24.5438 3.92853 2.67211 -4.53111 3.92852 2.6721 91.2346 -22.3193 -107.325 43.3226 -9.22688 -8.75055 8.57916 -4.82053 -5.77851 -34.7674 -0.627839 -3.86895 -85.9333 -67.8051 87.0235 -11.8025 0.747261 11.6278 8.86679 3.43797 -6.74871 21.545 3.8732 14.1609 0.400968 7.60475 36.5442 -2.08751 2.24598 -5.8993 
182.091 95.1256 -166.704 95.6601 27.9479 82.9815 -177.982 28.7506 85.326 -27.4228 6.38826 -2.78271 66.6555 3.07995 -4.0973 15.6464 0.0951661 1.92446 164.338 -19.5811 79.4136 -24.3461 -3.85196 -1.9843 68.7869 -4.93697 -0.791932 56.6887 -3.22588 3.93465 1.45369 7.89559 -89.3037 11.0693 3.2167 1.07548 -0.597968 3.26092 0.932728 -23.1543 2.74473 1.99302 -3.14167 2.74472 1.99302 90.4206 -25.0441 -107.91 50.9152 -8.4068 1.1209 8.82613 -2.60378 -5.35014 -31.1529 -0.00283391 -5.67393 -86.0609 -65.3005 86.6184 -16.6649 3.78297 9.53772 8.76125 11.2782 -6.24632 13.2769 1.97317 10.5634 -4.96521 8.14601 28.0545 -0.49454 5.35009 -3.57734 
196.368 91.9071 -178.076 97.7567 32.9992 81.5346 -173.561 29.5751 81.31 -50.8794 16.1342 -4.08294 75.8888 7.06634 0.684402 0.221837 1.54147 2.48605 172.877 -5.89095 86.3503 -70.6061 -11.0253 -3.97672 61.6916 -1.47375 -0.5217 22.6244 -2.91501 7.43211 0.380737 7.80266 -88.8117 11.2468 1.3107 2.23527 -0.425464 1.40778 2.17544 -22.946 0.578591 2.52568 -2.93337 0.578601 2.52568 92.2935 -27.0234 -103.132 49.7117 2.05326 10.9356 6.59567 1.82596 -4.18452 -24.3191 -0.289047 -3.70661 -88.0335 -57.7516 82.9878 -6.82037 1.38261 -4.74346 9.27139 16.0864 -4.66221 19.1306 2.37794 8.53956 2.83663 8.34802 3.55165 -4.26752 7.62545 -2.53186 
